<svg xmlns="http://www.w3.org/2000/svg" version="1.1" xmlns:xlink="http://www.w3.org/1999/xlink" preserveAspectRatio="none" x="0px" y="0px" width="64px" height="64px" viewBox="0 0 64 64">
<defs>
<g id="Layer0_0_FILL">
<path fill="#000000" stroke="none" d="
M 64 64
L 64 0 0 0 0 64 64 64
M 43.7 9.55
Q 43.9 10.15 43.9 11.5 43.9 15.85 40.4 22.2 36.85 28.5 30.55 35.1 30.25 36.75 30.25 37.6 30.25 39.6 31.15 40.8 31.95 42.05 33.5 42.05 34.3 42.05 35.2 41.5 36.1 40.85 37.1 39.95 38.1 39.05 41 36.35
L 41 38.7
Q 34.45 47.3 30.4 47.3 28.2 47.3 26.9 44.9 25.65703125 42.4638671875 25.65 38.6 22.971875 40.1099609375 19.95 40.9
L 19.95 39.9
Q 22.6427734375 38.70625 25.8 36.2 26.1681640625 33.8474609375 27.15 31 28.65 26.6 31.15 22.1 33.65 17.6 36.35 14.25 39.05 10.85 41.35 9.5 42.3 8.95 42.85 8.95 43.5 8.95 43.7 9.55
M 31.6 50.6
Q 32.4 51.35 32.4 52.45 32.4 53.5 31.6 54.25 30.85 55.05 29.8 55.05 28.7 55.05 27.95 54.25 27.2 53.5 27.2 52.45 27.2 51.35 27.95 50.6 28.7 49.85 29.8 49.85 30.85 49.85 31.6 50.6
M 39.35 15.5
Q 37.4 17.05 35.05 21.6 32.65 26.15 31.7 30.8 33.3 29.15 34.85 27.15 36.35 25.1 37.65 22.8 39 20.5 39.8 18.65 40.5 16.8 40.5 15.85 40.5 15.15 40 15.15 39.85 15.15 39.35 15.5 Z"/>

<path fill="#FFFFFF" stroke="none" d="
M 32.4 52.45
Q 32.4 51.35 31.6 50.6 30.85 49.85 29.8 49.85 28.7 49.85 27.95 50.6 27.2 51.35 27.2 52.45 27.2 53.5 27.95 54.25 28.7 55.05 29.8 55.05 30.85 55.05 31.6 54.25 32.4 53.5 32.4 52.45
M 19.95 39.9
L 19.95 40.9
Q 22.971875 40.1099609375 25.65 38.6 29.752734375 36.2732421875 33.05 32.25
L 33.05 29.55
Q 32.15 30.5 31.25 31.35 28.3810546875 34.1966796875 25.8 36.2 22.6427734375 38.70625 19.95 39.9
M 43.9 11.5
Q 43.9 10.15 43.7 9.55 43.5 8.95 42.85 8.95 42.3 8.95 41.35 9.5 39.05 10.85 36.35 14.25 33.65 17.6 31.15 22.1 28.65 26.6 27.15 31 26.1681640625 33.8474609375 25.8 36.2 28.3810546875 34.1966796875 31.25 31.35 32.15 30.5 33.05 29.55
L 33.05 32.25
Q 29.752734375 36.2732421875 25.65 38.6 25.65703125 42.4638671875 26.9 44.9 28.2 47.3 30.4 47.3 34.45 47.3 41 38.7
L 41 36.35
Q 38.1 39.05 37.1 39.95 36.1 40.85 35.2 41.5 34.3 42.05 33.5 42.05 31.95 42.05 31.15 40.8 30.25 39.6 30.25 37.6 30.25 36.75 30.55 35.1 36.85 28.5 40.4 22.2 43.9 15.85 43.9 11.5
M 35.05 21.6
Q 37.4 17.05 39.35 15.5 39.85 15.15 40 15.15 40.5 15.15 40.5 15.85 40.5 16.8 39.8 18.65 39 20.5 37.65 22.8 36.35 25.1 34.85 27.15 33.3 29.15 31.7 30.8 32.65 26.15 35.05 21.6 Z"/>
</g>

<path id="Layer0_0_1_STROKES" stroke="#FFFFFF" stroke-width="0.1" stroke-linejoin="round" stroke-linecap="round" fill="none" d="
M 25.65 38.6
Q 22.971875 40.1099609375 19.95 40.9
L 19.95 39.9
Q 22.6427734375 38.70625 25.825 36.2 28.3810546875 34.1966796875 31.25 31.35 32.15 30.5 33.05 29.55
L 33.05 32.25
Q 29.752734375 36.2732421875 25.65 38.6 Z
M 32.4 52.45
Q 32.4 53.5 31.6 54.25 30.85 55.05 29.8 55.05 28.7 55.05 27.95 54.25 27.2 53.5 27.2 52.45 27.2 51.35 27.95 50.6 28.7 49.85 29.8 49.85 30.85 49.85 31.6 50.6 32.4 51.35 32.4 52.45 Z"/>
</defs>

<g transform="matrix( 1, 0, 0, 1, 0,0) ">
<use xlink:href="#Layer0_0_FILL"/>

<use xlink:href="#Layer0_0_1_STROKES"/>
</g>
</svg>
